<svg width="30" height="34" viewBox="0 0 30 34" fill="none" xmlns="http://www.w3.org/2000/svg">
<g clip-path="url(#clip0_83_79)">
<path d="M28.75 11.3333C28.75 12.8917 27.625 14.1667 26.25 14.1667C26.025 14.1667 25.8125 14.1383 25.6125 14.0675L21.1625 19.0967C21.225 19.3233 21.25 19.5783 21.25 19.8333C21.25 21.3917 20.125 22.6667 18.75 22.6667C17.375 22.6667 16.25 21.3917 16.25 19.8333C16.25 19.5783 16.275 19.3233 16.3375 19.0967L13.15 15.4842C12.95 15.555 12.725 15.5833 12.5 15.5833C12.275 15.5833 12.05 15.555 11.85 15.4842L6.1625 21.9442C6.225 22.1708 6.25 22.4117 6.25 22.6667C6.25 24.225 5.125 25.5 3.75 25.5C2.375 25.5 1.25 24.225 1.25 22.6667C1.25 21.1083 2.375 19.8333 3.75 19.8333C3.975 19.8333 4.1875 19.8617 4.3875 19.9325L10.0875 13.4867C10.025 13.26 10 13.005 10 12.75C10 11.1917 11.125 9.91667 12.5 9.91667C13.875 9.91667 15 11.1917 15 12.75C15 13.005 14.975 13.26 14.9125 13.4867L18.1 17.0992C18.3 17.0283 18.525 17 18.75 17C18.975 17 19.2 17.0283 19.4 17.0992L23.8375 12.0558C23.775 11.8292 23.75 11.5883 23.75 11.3333C23.75 9.775 24.875 8.5 26.25 8.5C27.625 8.5 28.75 9.775 28.75 11.3333ZM28.75 11.3333C28.75 12.8917 27.625 14.1667 26.25 14.1667C26.025 14.1667 25.8125 14.1383 25.6125 14.0675L21.1625 19.0967C21.225 19.3233 21.25 19.5783 21.25 19.8333C21.25 21.3917 20.125 22.6667 18.75 22.6667C17.375 22.6667 16.25 21.3917 16.25 19.8333C16.25 19.5783 16.275 19.3233 16.3375 19.0967L13.15 15.4842C12.95 15.555 12.725 15.5833 12.5 15.5833C12.275 15.5833 12.05 15.555 11.85 15.4842L6.1625 21.9442C6.225 22.1708 6.25 22.4117 6.25 22.6667C6.25 24.225 5.125 25.5 3.75 25.5C2.375 25.5 1.25 24.225 1.25 22.6667C1.25 21.1083 2.375 19.8333 3.75 19.8333C3.975 19.8333 4.1875 19.8617 4.3875 19.9325L10.0875 13.4867C10.025 13.26 10 13.005 10 12.75C10 11.1917 11.125 9.91667 12.5 9.91667C13.875 9.91667 15 11.1917 15 12.75C15 13.005 14.975 13.26 14.9125 13.4867L18.1 17.0992C18.3 17.0283 18.525 17 18.75 17C18.975 17 19.2 17.0283 19.4 17.0992L23.8375 12.0558C23.775 11.8292 23.75 11.5883 23.75 11.3333C23.75 9.775 24.875 8.5 26.25 8.5C27.625 8.5 28.75 9.775 28.75 11.3333Z" fill="#6B7280"/>
</g>
<defs>
<clipPath id="clip0_83_79">
<rect width="30" height="34" fill="white"/>
</clipPath>
</defs>
</svg>
