<svg width="28" height="28" viewBox="0 0 28 28" fill="none" xmlns="http://www.w3.org/2000/svg">
<path d="M9 11V9H23V11H9ZM9 15V13H23V15H9ZM9 19V17H23V19H9ZM6 11C5.71667 11 5.47917 10.9042 5.2875 10.7125C5.09583 10.5208 5 10.2833 5 10C5 9.71667 5.09583 9.47917 5.2875 9.2875C5.47917 9.09583 5.71667 9 6 9C6.28333 9 6.52083 9.09583 6.7125 9.2875C6.90417 9.47917 7 9.71667 7 10C7 10.2833 6.90417 10.5208 6.7125 10.7125C6.52083 10.9042 6.28333 11 6 11ZM6 15C5.71667 15 5.47917 14.9042 5.2875 14.7125C5.09583 14.5208 5 14.2833 5 14C5 13.7167 5.09583 13.4792 5.2875 13.2875C5.47917 13.0958 5.71667 13 6 13C6.28333 13 6.52083 13.0958 6.7125 13.2875C6.90417 13.4792 7 13.7167 7 14C7 14.2833 6.90417 14.5208 6.7125 14.7125C6.52083 14.9042 6.28333 15 6 15ZM6 19C5.71667 19 5.47917 18.9042 5.2875 18.7125C5.09583 18.5208 5 18.2833 5 18C5 17.7167 5.09583 17.4792 5.2875 17.2875C5.47917 17.0958 5.71667 17 6 17C6.28333 17 6.52083 17.0958 6.7125 17.2875C6.90417 17.4792 7 17.7167 7 18C7 18.2833 6.90417 18.5208 6.7125 18.7125C6.52083 18.9042 6.28333 19 6 19Z" fill="#1D1B20"/>
</svg>
