<svg width="30" height="34" viewBox="0 0 30 34" fill="none" xmlns="http://www.w3.org/2000/svg">
<path d="M15 17C13.4875 17 12.1927 16.5104 11.1156 15.5312C10.0385 14.5521 9.5 13.375 9.5 12C9.5 10.625 10.0385 9.44792 11.1156 8.46875C12.1927 7.48958 13.4875 7 15 7C16.5125 7 17.8073 7.48958 18.8844 8.46875C19.9615 9.44792 20.5 10.625 20.5 12C20.5 13.375 19.9615 14.5521 18.8844 15.5312C17.8073 16.5104 16.5125 17 15 17ZM4 27V23.5C4 22.7917 4.20052 22.1406 4.60156 21.5469C5.0026 20.9531 5.53542 20.5 6.2 20.1875C7.62083 19.5417 9.06458 19.0573 10.5313 18.7344C11.9979 18.4115 13.4875 18.25 15 18.25C16.5125 18.25 18.0021 18.4115 19.4688 18.7344C20.9354 19.0573 22.3792 19.5417 23.8 20.1875C24.4646 20.5 24.9974 20.9531 25.3984 21.5469C25.7995 22.1406 26 22.7917 26 23.5V27H4ZM6.75 24.5H23.25V23.5C23.25 23.2708 23.187 23.0625 23.0609 22.875C22.9349 22.6875 22.7688 22.5417 22.5625 22.4375C21.325 21.875 20.076 21.4531 18.8156 21.1719C17.5552 20.8906 16.2833 20.75 15 20.75C13.7167 20.75 12.4448 20.8906 11.1844 21.1719C9.92396 21.4531 8.675 21.875 7.4375 22.4375C7.23125 22.5417 7.0651 22.6875 6.93906 22.875C6.81302 23.0625 6.75 23.2708 6.75 23.5V24.5ZM15 14.5C15.7563 14.5 16.4036 14.2552 16.9422 13.7656C17.4807 13.276 17.75 12.6875 17.75 12C17.75 11.3125 17.4807 10.724 16.9422 10.2344C16.4036 9.74479 15.7563 9.5 15 9.5C14.2438 9.5 13.5964 9.74479 13.0578 10.2344C12.5193 10.724 12.25 11.3125 12.25 12C12.25 12.6875 12.5193 13.276 13.0578 13.7656C13.5964 14.2552 14.2438 14.5 15 14.5Z" fill="#6B7280"/>
</svg>
