<svg width="28" height="28" viewBox="0 0 28 28" fill="none" xmlns="http://www.w3.org/2000/svg">
<g clip-path="url(#clip0_197_665)">
<path d="M17.5817 1.17834H10.5817V3.51168H17.5817V1.17834ZM12.915 16.345H15.2483V9.34501H12.915V16.345ZM22.2833 8.62168L23.94 6.96501C23.4383 6.37001 22.89 5.81001 22.295 5.32001L20.6383 6.97668C18.83 5.53001 16.555 4.66668 14.0817 4.66668C8.28333 4.66668 3.58167 9.36834 3.58167 15.1667C3.58167 20.965 8.27166 25.6667 14.0817 25.6667C19.8917 25.6667 24.5817 20.965 24.5817 15.1667C24.5817 12.705 23.7183 10.43 22.2833 8.62168ZM14.0817 23.345C9.56667 23.345 5.915 19.6933 5.915 15.1783C5.915 10.6633 9.56667 7.01168 14.0817 7.01168C18.5967 7.01168 22.2483 10.6633 22.2483 15.1783C22.2483 19.6933 18.5967 23.345 14.0817 23.345Z" fill="#858585"/>
</g>
<defs>
<clipPath id="clip0_197_665">
<rect width="28" height="28" fill="white"/>
</clipPath>
</defs>
</svg>
