<svg width="36" height="36" viewBox="0 0 36 36" fill="none" xmlns="http://www.w3.org/2000/svg">
<g clip-path="url(#clip0_143_221)">
<path d="M1.5 6.00005V15M1.5 15H10.5M1.5 15L8.46 8.46005C10.5314 6.39218 13.2187 5.0535 16.117 4.64572C19.0154 4.23794 21.9677 4.78315 24.5293 6.19919C27.0908 7.61524 29.1227 9.82541 30.3189 12.4967C31.5151 15.168 31.8108 18.1557 31.1613 21.0096C30.5119 23.8635 28.9525 26.4291 26.7182 28.3197C24.4839 30.2103 21.6956 31.3236 18.7736 31.4918C15.8515 31.6599 12.954 30.8739 10.5175 29.2521C8.081 27.6303 6.23759 25.2606 5.265 22.5" stroke="#6B7280" stroke-width="4" stroke-linecap="round" stroke-linejoin="round"/>
</g>
<defs>
<clipPath id="clip0_143_221">
<rect width="36" height="36" fill="white"/>
</clipPath>
</defs>
</svg>
