<svg width="28" height="28" viewBox="0 0 28 28" fill="none" xmlns="http://www.w3.org/2000/svg">
<g clip-path="url(#clip0_83_128)">
<path d="M14 16C15.1045 16 16 15.1046 16 14C16 12.8954 15.1045 12 14 12C12.8954 12 12 12.8954 12 14C12 15.1046 12.8954 16 14 16Z" stroke="#1E1E1E" stroke-width="1.5" stroke-linecap="round" stroke-linejoin="round"/>
<path d="M18.9333 16C18.8445 16.2011 18.8181 16.4241 18.8573 16.6404C18.8965 16.8566 18.9996 17.0562 19.1533 17.2133L19.1933 17.2533C19.3173 17.3772 19.4156 17.5242 19.4827 17.6861C19.5498 17.8479 19.5843 18.0214 19.5843 18.1967C19.5843 18.3719 19.5498 18.5454 19.4827 18.7072C19.4156 18.8691 19.3173 19.0162 19.1933 19.14C19.0695 19.264 18.9224 19.3623 18.7605 19.4294C18.5987 19.4965 18.4252 19.531 18.25 19.531C18.0747 19.531 17.9012 19.4965 17.7394 19.4294C17.5775 19.3623 17.4305 19.264 17.3066 19.14L17.2666 19.1C17.1095 18.9463 16.9099 18.8432 16.6937 18.804C16.4774 18.7648 16.2544 18.7912 16.0533 18.88C15.8561 18.9645 15.6879 19.1048 15.5695 19.2837C15.451 19.4625 15.3875 19.6721 15.3866 19.8867V20C15.3866 20.3536 15.2461 20.6927 14.9961 20.9428C14.7461 21.1928 14.4069 21.3333 14.0533 21.3333C13.6997 21.3333 13.3605 21.1928 13.1105 20.9428C12.8604 20.6927 12.72 20.3536 12.72 20V19.94C12.7148 19.7193 12.6434 19.5053 12.515 19.3258C12.3866 19.1463 12.2071 19.0095 12 18.9333C11.7989 18.8446 11.5758 18.8181 11.3596 18.8573C11.1433 18.8965 10.9437 18.9996 10.7866 19.1533L10.7466 19.1933C10.6228 19.3173 10.4757 19.4156 10.3139 19.4827C10.152 19.5498 9.97851 19.5844 9.80329 19.5844C9.62807 19.5844 9.45457 19.5498 9.29271 19.4827C9.13084 19.4156 8.98379 19.3173 8.85996 19.1933C8.73599 19.0695 8.63765 18.9224 8.57055 18.7606C8.50345 18.5987 8.46891 18.4252 8.46891 18.25C8.46891 18.0748 8.50345 17.9013 8.57055 17.7394C8.63765 17.5775 8.73599 17.4305 8.85996 17.3067L8.89996 17.2667C9.05365 17.1095 9.15675 16.91 9.19596 16.6937C9.23517 16.4775 9.2087 16.2544 9.11996 16.0533C9.03545 15.8561 8.89513 15.688 8.71627 15.5695C8.53741 15.4511 8.32782 15.3875 8.11329 15.3867H7.99996C7.64634 15.3867 7.3072 15.2462 7.05715 14.9961C6.8071 14.7461 6.66663 14.4069 6.66663 14.0533C6.66663 13.6997 6.8071 13.3606 7.05715 13.1105C7.3072 12.8605 7.64634 12.72 7.99996 12.72H8.05996C8.28062 12.7148 8.49463 12.6434 8.67416 12.515C8.85369 12.3866 8.99044 12.2071 9.06663 12C9.15537 11.7989 9.18184 11.5759 9.14263 11.3596C9.10342 11.1433 9.00032 10.9438 8.84663 10.7867L8.80663 10.7467C8.68266 10.6228 8.58431 10.4758 8.51721 10.3139C8.45011 10.152 8.41558 9.97854 8.41558 9.80332C8.41558 9.6281 8.45011 9.4546 8.51721 9.29274C8.58431 9.13087 8.68266 8.98382 8.80663 8.85999C8.93046 8.73602 9.07751 8.63768 9.23937 8.57058C9.40124 8.50348 9.57474 8.46894 9.74996 8.46894C9.92518 8.46894 10.0987 8.50348 10.2605 8.57058C10.4224 8.63768 10.5695 8.73602 10.6933 8.85999L10.7333 8.89999C10.8904 9.05368 11.09 9.15678 11.3062 9.19599C11.5225 9.23521 11.7455 9.20873 11.9466 9.11999H12C12.1971 9.03548 12.3653 8.89516 12.4838 8.7163C12.6022 8.53744 12.6658 8.32785 12.6666 8.11332V7.99999C12.6666 7.64637 12.8071 7.30723 13.0572 7.05718C13.3072 6.80713 13.6463 6.66666 14 6.66666C14.3536 6.66666 14.6927 6.80713 14.9428 7.05718C15.1928 7.30723 15.3333 7.64637 15.3333 7.99999V8.05999C15.3341 8.27451 15.3977 8.48411 15.5162 8.66297C15.6346 8.84183 15.8028 8.98215 16 9.06666C16.201 9.1554 16.4241 9.18187 16.6404 9.14266C16.8566 9.10345 17.0562 9.00035 17.2133 8.84666L17.2533 8.80666C17.3771 8.68269 17.5242 8.58434 17.686 8.51724C17.8479 8.45014 18.0214 8.41561 18.1966 8.41561C18.3718 8.41561 18.5453 8.45014 18.7072 8.51724C18.8691 8.58434 19.0161 8.68269 19.14 8.80666C19.2639 8.93049 19.3623 9.07754 19.4294 9.2394C19.4965 9.40127 19.531 9.57477 19.531 9.74999C19.531 9.92521 19.4965 10.0987 19.4294 10.2606C19.3623 10.4224 19.2639 10.5695 19.14 10.6933L19.1 10.7333C18.9463 10.8904 18.8432 11.09 18.804 11.3063C18.7647 11.5225 18.7912 11.7456 18.88 11.9467V12C18.9645 12.1972 19.1048 12.3653 19.2836 12.4838C19.4625 12.6022 19.6721 12.6658 19.8866 12.6667H20C20.3536 12.6667 20.6927 12.8071 20.9428 13.0572C21.1928 13.3072 21.3333 13.6464 21.3333 14C21.3333 14.3536 21.1928 14.6927 20.9428 14.9428C20.6927 15.1928 20.3536 15.3333 20 15.3333H19.94C19.7254 15.3342 19.5158 15.3977 19.337 15.5162C19.1581 15.6346 19.0178 15.8028 18.9333 16Z" stroke="#1E1E1E" stroke-width="1.5" stroke-linecap="round" stroke-linejoin="round"/>
</g>
<defs>
<clipPath id="clip0_83_128">
<rect width="16" height="16" fill="white" transform="translate(6 6)"/>
</clipPath>
</defs>
</svg>
