<svg width="30" height="34" viewBox="0 0 30 34" fill="none" xmlns="http://www.w3.org/2000/svg">
<path d="M11.5 7.36107V4.99996H19V7.36107H11.5ZM14 20.3472H16.5V13.2638H14V20.3472ZM15.25 29.7916C13.7083 29.7916 12.2552 29.5112 10.8906 28.9505C9.52604 28.3897 8.33333 27.6273 7.3125 26.6632C6.29167 25.699 5.48438 24.5726 4.89062 23.2838C4.29688 21.995 4 20.6226 4 19.1666C4 17.7106 4.29688 16.3382 4.89062 15.0494C5.48438 13.7607 6.29167 12.6342 7.3125 11.6701C8.33333 10.706 9.52604 9.94353 10.8906 9.38277C12.2552 8.82201 13.7083 8.54163 15.25 8.54163C16.5417 8.54163 17.7812 8.73838 18.9688 9.1319C20.1562 9.52542 21.2708 10.096 22.3125 10.8437L24.0625 9.19093L25.8125 10.8437L24.0625 12.4965C24.8542 13.4803 25.4583 14.5329 25.875 15.6545C26.2917 16.776 26.5 17.9467 26.5 19.1666C26.5 20.6226 26.2031 21.995 25.6094 23.2838C25.0156 24.5726 24.2083 25.699 23.1875 26.6632C22.1667 27.6273 20.974 28.3897 19.6094 28.9505C18.2448 29.5112 16.7917 29.7916 15.25 29.7916ZM15.25 27.4305C17.6667 27.4305 19.7292 26.6238 21.4375 25.0104C23.1458 23.397 24 21.449 24 19.1666C24 16.8842 23.1458 14.9363 21.4375 13.3229C19.7292 11.7095 17.6667 10.9027 15.25 10.9027C12.8333 10.9027 10.7708 11.7095 9.0625 13.3229C7.35417 14.9363 6.5 16.8842 6.5 19.1666C6.5 21.449 7.35417 23.397 9.0625 25.0104C10.7708 26.6238 12.8333 27.4305 15.25 27.4305Z" fill="#6B7280"/>
</svg>
